<svg version="1.1" xmlns="http://www.w3.org/2000/svg" viewBox="0 0 2048 2048" width="1000" height="1000" preserveAspectRatio="xMidYMid meet" display="block"><rect x="0" y="0" width="2048" height="2048" rx="384" ry="384" fill="rgb(1,46,70)" data-c-fill="012e46"/><g transform="translate(0,120) translate(1024,1024) scale(1.05) translate(-1024,-1024)"><path fill="rgb(254,119,2)" d="M 1543.65 602.402 C 1563.3 599.054 1597.49 604.368 1616.36 610.648 C 1657.44 624.093 1691.32 653.617 1710.26 692.475 C 1742.99 758.587 1728.44 832.732 1688.23 892.097 C 1662.22 930.49 1632.2 951.546 1596.3 979.123 C 1573.49 996.36 1551.01 1014.01 1528.86 1032.07 C 1348.53 1180.66 1228.32 1352.9 1152.91 1574.2 C 1146.07 1593.56 1140.54 1613.69 1135.26 1633.54 C 1132.16 1645.21 1128.97 1666.88 1123.25 1676.83 C 1121.77 1679.41 1118.94 1681.43 1115.97 1681.87 C 1113.12 1682.29 1110.62 1681.34 1108.4 1679.58 C 1097.48 1670.9 1079.85 1545.9 1078.11 1529.36 C 1051.19 1273.77 1129.97 965.112 1292.87 764.814 C 1355.77 687.471 1440.33 612.936 1543.65 602.402 z" data-c-fill="fe7702"/><path fill="rgb(254,240,223)" d="M 1126.86 376.401 C 1143.67 374.541 1165.59 377.223 1181.71 382.09 C 1216.53 392.891 1245.59 417.145 1262.45 449.466 C 1275.8 474.461 1281.73 501.256 1282.06 529.484 C 1283.19 625.14 1220.73 702.727 1172.88 780.363 C 1145.56 824.442 1120.96 870.154 1099.23 917.242 C 1050.56 1020.99 1019.13 1131.98 1006.15 1245.84 C 994.211 1346.34 1001.95 1454.88 1021.64 1553.93 C 1027.13 1580.58 1033.49 1607.04 1040.7 1633.28 C 1042.19 1638.85 1050.25 1663.91 1049.16 1667.44 L 1047.48 1667.62 C 1043.19 1665.16 1041.68 1662.08 1038.86 1657.95 C 1017.34 1626.45 996.828 1597.3 978.176 1563.42 C 822.703 1281.02 770.647 919.442 890.36 614.876 C 930.928 511.667 1006.71 389.551 1126.86 376.401 z" data-c-fill="fef0df"/><path fill="rgb(20,147,171)" d="M 539.508 834.433 C 630.18 833.693 693.676 910.443 718.59 990.903 C 728.508 1022.93 733.601 1053.09 739.413 1085.99 C 743.857 1110.84 748.635 1135.62 753.744 1160.34 C 768.284 1229.26 789.087 1296.7 815.891 1361.84 C 843.209 1427.99 876.286 1491.61 914.74 1551.97 C 929.194 1574.6 944.321 1596.79 960.102 1618.51 C 972.136 1635.18 990.882 1658.17 1002.07 1675.82 C 1002.77 1676.92 1002.19 1677.2 1001.36 1678.59 C 992.187 1679.59 921.783 1638.03 908.439 1630.19 C 829.752 1581.95 755.66 1526.6 687.096 1464.81 C 565.166 1355.22 405.015 1179.16 393.386 1006.61 C 390.482 963.52 405.043 912.109 435.232 880.407 C 464.063 850.131 498.155 836.06 539.508 834.433 z" data-c-fill="1493ab"/></g></svg>